<?xml version="1.0" encoding="utf-8"?>
<!-- Generator: Adobe Illustrator 26.3.1, SVG Export Plug-In . SVG Version: 6.00 Build 0)  -->
<svg version="1.1" id="Layer_1" xmlns="http://www.w3.org/2000/svg" xmlns:xlink="http://www.w3.org/1999/xlink" x="0px" y="0px"
	 viewBox="0 0 540 505" style="enable-background:new 0 0 540 505;" xml:space="preserve">
<style type="text/css">
	.st0{fill:#FFFFFF;stroke:#CCCCCC;stroke-width:22;stroke-miterlimit:10;}
	.st1{fill:#FFFFFF;stroke:#FFFFFF;stroke-width:22;stroke-miterlimit:10;}
</style>
<g>
	<g>
		<path class="st0" d="M341.64,476.07c-14.29-6.55-30.52-14.39-38.03-20.83c-18.59-15.93-24.33-43.28-13.96-66.51l0.44-0.96
			c1.89-4.12,6.63-5.99,10.58-4.18c3.96,1.81,5.63,6.62,3.74,10.74l-0.4,0.88c-7.37,16.5-3.27,36.01,9.99,47.37
			c7.34,6.3,28.56,15.89,42.59,22.24c2.24,1.01,4.33,1.96,6.22,2.82c28.69,13.15,44.74,9.02,55.41-14.26
			c6.23-13.59,17.53-20.2,24.88-23.2c-0.18-6.3,0.13-14.39,2.37-19.29c4.5-9.82,15.56-11.11,23.63-12.06
			c2.28-0.27,5.87-0.69,7.64-1.27c0.32-3.15-0.11-10.36-0.47-16.29c-1.06-17.74-2.52-42.03,5.3-59.09
			c1.88-4.11,5.16-10.41,9.74-18.71c23.46-42.52,24.98-92.58,4.07-133.92c-13.88-27.44-36.27-48.39-66.57-62.28
			c-45.89-21.03-90.51-17.56-132.64,10.3c-35.38,23.4-60.61,59.37-71.47,83.06c-21.58,47.09-10.1,104.22-9.98,104.79l0.56,2.68
			l-36.51,79.68c-1.89,4.12-6.62,5.99-10.58,4.18c-3.96-1.81-5.63-6.62-3.74-10.74l34.23-74.7c-2.21-12.76-9.59-65.98,11.71-112.45
			c12.36-26.96,39.2-64.8,77.49-90.12c32.32-21.37,84.19-40.73,147.78-11.59c33.52,15.36,58.37,38.69,73.87,69.34
			c23.36,46.2,21.7,102.08-4.45,149.49c-4.38,7.93-7.46,13.85-9.17,17.57c-6.05,13.2-4.74,35.06-3.78,51.02
			c0.81,13.54,1.11,20.27-1.1,25.08c-3.77,8.22-13.1,9.31-20.61,10.19c-3.09,0.36-9.52,1.11-10.64,2.46
			c-0.84,2.03-1.08,10.4-0.48,17.49l0.64,7.54l-7.3,1.43c-0.53,0.11-14.2,3.11-20.1,15.99c-14.5,31.64-40.26,39.25-76.57,22.61
			c-1.87-0.86-3.94-1.79-6.15-2.79C347.22,478.62,344.47,477.37,341.64,476.07z"/>
	</g>
</g>
<g>
	<g>
		<path class="st0" d="M341.43,331.21c-14.06,7.45-30.33,15.67-40.07,17.83c-24.11,5.37-49.18-6.05-60.97-27.76l-0.48-0.9
			c-2.06-3.89-0.58-8.71,3.31-10.78c3.89-2.06,8.71-0.58,10.78,3.31l0.44,0.83c8.37,15.42,26.26,23.57,43.46,19.74
			c9.53-2.12,30.29-13.24,44.03-20.61c2.19-1.17,4.24-2.27,6.1-3.26c28.21-14.95,34.97-30.01,23.33-51.98
			c-6.8-12.83-4.95-25.59-2.72-33.13c-5.06-3.53-11.23-8.49-13.68-13.11c-4.91-9.27,0.96-18.74,5.25-25.65
			c1.21-1.96,3.12-5.03,3.76-6.76c-2.27-2.09-8.21-5.95-13.1-9.13c-14.6-9.5-34.6-22.51-43.13-38.61
			c-2.06-3.88-4.96-10.13-8.63-18.58C280.32,69.4,241.93,39.02,196.4,31.41c-30.21-5.05-60.64,0.39-90.44,16.18
			C60.84,71.5,35.75,108.69,31.39,158.13c-3.66,41.52,8.88,82.37,20.73,104.74c23.55,44.45,75.61,68.7,76.13,68.94l2.46,1.13
			l39.86,75.21c2.06,3.89,0.58,8.71-3.31,10.78s-8.71,0.58-10.77-3.31L119.1,345.1c-11.41-5.69-57.83-30.9-81.07-74.76
			c-13.49-25.45-26.49-68.66-22.52-113.6c3.35-37.93,20.46-90.1,83-123.23c32.96-17.47,66.79-23.46,100.53-17.81
			c50.87,8.51,93.75,42.39,114.7,90.63c3.51,8.07,6.23,13.95,8.1,17.47c6.6,12.46,24.6,24.16,37.74,32.71
			c11.15,7.25,16.62,10.94,19.02,15.48c4.11,7.76-0.85,15.76-4.84,22.18c-1.64,2.65-5.06,8.15-4.7,9.82
			c1.07,1.85,7.5,6.91,13.45,10.57l6.32,3.89l-3.42,6.59c-0.24,0.48-6.41,13.01,0.04,25.16c15.83,29.87,5.75,54.61-29.95,73.53
			c-1.84,0.97-3.87,2.06-6.03,3.22C346.91,328.29,344.22,329.74,341.43,331.21z"/>
	</g>
</g>
<g>
	<g>
		<g>
			<path class="st1" d="M355.5,404.09c-15.91,0-34.14-0.36-43.76-3.01c-23.82-6.54-40.63-28.37-40.87-53.08l0-1.02
				c0-4.4,3.57-7.97,7.97-7.97c4.4,0,7.97,3.57,7.97,7.97v0.94c0.18,17.55,12.17,33.12,29.16,37.79c9.41,2.59,32.96,2.48,48.55,2.41
				c2.48-0.01,4.81-0.02,6.91-0.02c31.93,0,44.95-10.14,44.95-35.01c0-14.52,7.61-24.93,13.11-30.55
				c-2.82-5.49-5.95-12.76-5.95-17.99c0-10.49,9.63-16.11,16.65-20.21c1.99-1.16,5.11-2.98,6.49-4.21c-1.03-2.91-4.47-9.1-7.3-14.2
				c-8.46-15.23-20.03-36.09-20.03-54.31c0-4.39,0.36-11.28,1.07-20.46c3.65-47.03-16.05-91.85-52.7-119.89
				c-24.33-18.61-53.76-28.05-87.48-28.05c-51.07,0-90.66,21.12-117.66,62.76c-22.68,34.97-30.73,76.94-30.73,102.25
				c0,50.31,34.64,96.11,34.99,96.57l1.64,2.14v85.12c0,4.4-3.57,7.97-7.97,7.97c-4.4,0-7.97-3.57-7.97-7.97v-79.81
				c-7.41-10.37-36.63-54.38-36.63-104.02c0-28.81,8.75-73.07,33.29-110.92c20.72-31.95,60.27-70.03,131.04-70.03
				c37.3,0,70,10.54,97.17,31.33c40.96,31.34,62.99,81.35,58.91,133.79c-0.68,8.78-1.03,15.24-1.03,19.23
				c0,14.1,10.42,32.87,18.03,46.58c6.46,11.63,9.56,17.45,9.56,22.58c0,8.78-8.13,13.52-14.66,17.33
				c-2.69,1.57-8.29,4.83-8.75,6.47c0.08,2.14,3.39,9.62,6.94,15.64l3.77,6.39l-6.11,4.22c-0.44,0.31-11.75,8.49-11.75,22.25
				c0,33.81-20.49,50.95-60.9,50.95c-2.08,0-4.38,0.01-6.84,0.02C361.71,404.07,358.65,404.09,355.5,404.09z"/>
		</g>
	</g>
</g>
</svg>
