<?xml version="1.0" encoding="UTF-8"?><svg id="Layer_1" xmlns="http://www.w3.org/2000/svg" viewBox="0 0 400 400"><defs><style>.cls-1{fill:#fff;stroke:#fff;stroke-miterlimit:10;stroke-width:19px;}</style></defs><path class="cls-1" d="M261.7,344.59c-12.46,.41-26.75,.6-34.35-1.22-18.82-4.51-32.55-21.17-33.39-40.51l-.03-.8c-.11-3.45,2.59-6.33,6.04-6.45s6.33,2.59,6.45,6.04l.02,.74c.59,13.74,10.39,25.62,23.82,28.84,7.44,1.78,25.88,1.09,38.09,.63,1.94-.07,3.77-.14,5.41-.2,25.01-.83,33.09-2.52,32.45-21.99-.38-11.37,2.43-20.05,6.6-24.6-2.35-4.23-4.99-9.84-5.12-13.93-.27-8.22,11.85-19.12,17.25-22.52,1.53-.96,3.93-2.47,4.97-3.47-.88-2.25-3.74-7.01-6.08-10.93-7.02-11.71-26.76-42.59-27.23-56.86-.11-3.44,0-8.84,.31-16.05,1.64-36.93-4.81-56.67-34.25-77.69-19.54-13.95-42.83-20.57-69.24-19.7-40,1.32-70.45,18.89-90.52,52.2-16.85,27.98-22.07,61.05-21.41,80.87,1.3,39.4,29.62,74.37,29.9,74.72l1.34,1.64,2.21,66.66c.11,3.45-2.59,6.33-6.04,6.45-3.45,.11-6.33-2.59-6.45-6.04l-2.07-62.5c-6.08-7.93-30.1-41.64-31.38-80.52-.75-22.56,4.96-57.45,23.2-87.73,15.4-25.56,45.38-56.41,100.81-58.24,29.21-.97,55.09,6.44,76.91,22.02,32.89,23.48,41.3,47.24,39.47,88.41-.31,6.89-.41,11.97-.31,15.08,.37,11.04,19.15,40.32,25.46,50.85,5.36,8.94,7.94,13.42,8.07,17.44,.23,6.88-6.02,10.8-11.03,13.95-2.07,1.3-11.09,10.26-11.41,11.56,.12,1.67,2.9,7.44,5.84,12.07l3.12,4.91-4.67,3.46c-.34,.26-6.1,7.29-5.75,18.06,.88,26.47-12.88,33.84-44.52,34.89-1.63,.05-3.43,.12-5.35,.19-2.26,.08-4.66,.18-7.12,.26Z"/></svg>