<?xml version="1.0" encoding="utf-8"?>
<!-- Generator: Adobe Illustrator 26.3.1, SVG Export Plug-In . SVG Version: 6.00 Build 0)  -->
<svg version="1.1" id="Layer_1" xmlns="http://www.w3.org/2000/svg" xmlns:xlink="http://www.w3.org/1999/xlink" x="0px" y="0px"
	 viewBox="0 0 574 393.5" style="enable-background:new 0 0 574 393.5;" xml:space="preserve">
<style type="text/css">
	.st0{fill:#FFFFFF;}
	.st1{fill:#F99E04;}
</style>
<g>
	<g>
		<g>
			<path class="st0" d="M250.47,386.54c-15.91,0-34.14-0.36-43.76-3.01c-23.82-6.54-40.63-28.37-40.87-53.08l0-1.02
				c0-4.4,3.57-7.97,7.97-7.97c4.4,0,7.97,3.57,7.97,7.97v0.94c0.18,17.55,12.17,33.12,29.16,37.79c9.41,2.59,32.96,2.48,48.55,2.41
				c2.48-0.01,4.81-0.02,6.91-0.02c31.93,0,44.95-10.14,44.95-35.01c0-14.52,7.61-24.93,13.11-30.55
				c-2.82-5.49-5.95-12.76-5.95-17.99c0-10.49,9.63-16.11,16.65-20.21c1.99-1.16,5.11-2.98,6.49-4.21c-1.03-2.91-4.47-9.1-7.3-14.2
				c-8.46-15.23-20.03-36.09-20.03-54.31c0-4.39,0.36-11.28,1.07-20.46c3.65-47.03-16.05-91.85-52.7-119.89
				c-24.33-18.61-53.76-28.05-87.48-28.05c-51.07,0-90.66,21.12-117.66,62.76c-22.68,34.97-30.73,76.94-30.73,102.25
				c0,50.31,34.64,96.11,34.99,96.57l1.64,2.14v85.12c0,4.4-3.57,7.97-7.97,7.97s-7.97-3.57-7.97-7.97V294.7
				c-7.41-10.37-36.63-54.38-36.63-104.02c0-28.81,8.75-73.07,33.29-110.92C64.9,47.81,104.45,9.73,175.22,9.73
				c37.3,0,70,10.54,97.17,31.33c40.96,31.34,62.99,81.35,58.91,133.79c-0.68,8.78-1.03,15.24-1.03,19.23
				c0,14.1,10.42,32.87,18.03,46.58c6.46,11.63,9.56,17.45,9.56,22.58c0,8.78-8.13,13.52-14.66,17.33
				c-2.69,1.57-8.29,4.83-8.75,6.47c0.09,2.14,3.39,9.62,6.94,15.64l3.77,6.39l-6.11,4.22c-0.44,0.31-11.75,8.49-11.75,22.25
				c0,33.81-20.49,50.95-60.9,50.95c-2.08,0-4.38,0.01-6.84,0.02C256.68,386.52,253.62,386.54,250.47,386.54z"/>
		</g>
		<g>
			<g>
				<g>
					<g>
						<path class="st1" d="M364.67,166.66c-3.32,0-6.42-2.09-7.55-5.42c-1.41-4.17,0.82-8.69,4.99-10.11l187.9-63.64
							c4.17-1.41,8.69,0.82,10.11,4.99c1.41,4.17-0.82,8.69-4.99,10.11l-187.9,63.64C366.38,166.52,365.51,166.66,364.67,166.66z"/>
					</g>
					<g>
						<path class="st1" d="M552.57,265.97c-0.85,0-1.71-0.14-2.56-0.42l-187.9-63.64c-4.17-1.41-6.4-5.94-4.99-10.11
							c1.41-4.17,5.94-6.41,10.11-4.99l187.9,63.64c4.17,1.41,6.4,5.94,4.99,10.11C558.99,263.87,555.89,265.97,552.57,265.97z"/>
					</g>
				</g>
			</g>
		</g>
	</g>
</g>
</svg>
