<?xml version="1.0" encoding="utf-8"?>
<!-- Generator: Adobe Illustrator 26.3.1, SVG Export Plug-In . SVG Version: 6.00 Build 0)  -->
<svg version="1.1" id="Layer_1" xmlns="http://www.w3.org/2000/svg" xmlns:xlink="http://www.w3.org/1999/xlink" x="0px" y="0px"
	 viewBox="0 0 1366 677" style="enable-background:new 0 0 1366 677;" xml:space="preserve">
<style type="text/css">
	.st0{fill:#168CBA;}
	.st1{fill:#FFFFFF;}
	.st2{fill:#F99E04;}
</style>
<rect x="0.4" class="st0" width="1366" height="677"/>
<g>
	<g>
		<path class="st1" d="M163,542v-57.4h24.1c2.6,0,5,0.5,7.2,1.6c2.2,1.1,4.1,2.5,5.6,4.2c1.6,1.8,2.8,3.7,3.7,6
			c0.9,2.2,1.3,4.5,1.3,6.8c0,2.4-0.4,4.8-1.3,7c-0.8,2.2-2,4.2-3.5,6c-1.5,1.8-3.3,3.2-5.5,4.2c-2.1,1-4.5,1.6-7.1,1.6H172v20H163z
			 M172,514h15c1.3,0,2.5-0.3,3.5-0.8c1.1-0.5,2-1.3,2.7-2.3c0.8-1,1.3-2.1,1.8-3.4c0.4-1.3,0.6-2.7,0.6-4.3c0-1.6-0.2-3.1-0.7-4.4
			c-0.5-1.3-1.2-2.4-2-3.4c-0.9-0.9-1.8-1.7-3-2.2c-1.1-0.5-2.3-0.8-3.4-0.8H172V514z"/>
	</g>
	<g>
		<path class="st1" d="M252.6,534v8h-39.4v-57.4h38.6v8h-29.6v16.3h25.6v7.5h-25.6V534H252.6z"/>
	</g>
	<g>
		<path class="st1" d="M262.3,542v-57.4h25c2.6,0,5,0.5,7.2,1.6c2.2,1.1,4.1,2.5,5.6,4.2c1.6,1.8,2.8,3.7,3.7,6
			c0.9,2.2,1.3,4.5,1.3,6.8c0,1.9-0.3,3.8-0.8,5.6c-0.5,1.8-1.3,3.4-2.3,4.9c-1,1.5-2.2,2.8-3.6,3.9c-1.4,1.1-2.9,1.9-4.6,2.5
			l13.7,21.8h-10.3l-12.6-20h-13.3v20H262.3z M271.3,514h15.8c1.3,0,2.5-0.3,3.5-0.8c1.1-0.6,2-1.3,2.7-2.3c0.8-1,1.3-2.1,1.8-3.4
			c0.4-1.3,0.6-2.7,0.6-4.1c0-1.5-0.3-2.8-0.8-4.1c-0.5-1.3-1.2-2.4-2-3.4c-0.8-1-1.8-1.7-2.9-2.3c-1.1-0.6-2.3-0.8-3.4-0.8h-15.4
			V514z"/>
	</g>
	<g>
		<path class="st1" d="M312.8,512.9c0-3.4,0.6-6.9,1.9-10.3c1.2-3.4,3-6.5,5.4-9.2c2.3-2.7,5.2-4.9,8.6-6.6
			c3.4-1.7,7.2-2.5,11.6-2.5c5.1,0,9.5,1.2,13.2,3.5c3.7,2.3,6.5,5.3,8.3,9.1l-7.1,4.8c-0.8-1.7-1.7-3.2-2.8-4.4
			c-1.1-1.2-2.4-2.1-3.7-2.8c-1.3-0.7-2.7-1.2-4.1-1.5c-1.4-0.3-2.8-0.4-4.1-0.4c-2.9,0-5.5,0.6-7.7,1.8c-2.2,1.2-4.1,2.8-5.6,4.8
			c-1.5,2-2.6,4.2-3.4,6.7c-0.8,2.5-1.1,5-1.1,7.4c0,2.8,0.4,5.5,1.3,8c0.9,2.5,2.1,4.8,3.8,6.7c1.6,1.9,3.5,3.5,5.7,4.6
			c2.2,1.2,4.6,1.7,7.3,1.7c1.3,0,2.8-0.2,4.2-0.5c1.5-0.3,2.9-0.9,4.2-1.7c1.3-0.8,2.5-1.8,3.7-3c1.1-1.2,2.1-2.6,2.8-4.3l7.5,4.3
			c-0.9,2.2-2.2,4.1-3.8,5.7c-1.6,1.6-3.5,3-5.5,4.2c-2,1.1-4.2,2-6.5,2.6c-2.3,0.6-4.6,0.9-6.9,0.9c-4,0-7.6-0.9-10.9-2.6
			c-3.3-1.7-6.1-4-8.5-6.8c-2.4-2.8-4.3-5.9-5.6-9.5C313.4,520.2,312.8,516.6,312.8,512.9z"/>
	</g>
	<g>
		<path class="st1" d="M410.4,534v8h-39.4v-57.4h38.6v8h-29.6v16.3h25.6v7.5h-25.6V534H410.4z"/>
	</g>
	<g>
		<path class="st1" d="M420.1,542v-57.4h24.1c2.6,0,5,0.5,7.2,1.6c2.2,1.1,4.1,2.5,5.6,4.2c1.6,1.8,2.8,3.7,3.7,6
			c0.9,2.2,1.3,4.5,1.3,6.8c0,2.4-0.4,4.8-1.3,7c-0.8,2.2-2,4.2-3.5,6c-1.5,1.8-3.3,3.2-5.5,4.2c-2.1,1-4.5,1.6-7.1,1.6h-15.5v20
			H420.1z M429.2,514h15c1.3,0,2.5-0.3,3.5-0.8c1.1-0.5,2-1.3,2.7-2.3c0.8-1,1.3-2.1,1.8-3.4c0.4-1.3,0.6-2.7,0.6-4.3
			c0-1.6-0.2-3.1-0.7-4.4c-0.5-1.3-1.2-2.4-2-3.4c-0.9-0.9-1.8-1.7-3-2.2c-1.1-0.5-2.3-0.8-3.4-0.8h-14.5V514z"/>
	</g>
	<g>
		<path class="st1" d="M512.3,492.6h-19.1V542h-9.1v-49.4H465v-8h47.3V492.6z"/>
	</g>
	<g>
		<path class="st1" d="M520.2,542v-57.3h9.1V542H520.2z"/>
	</g>
	<g>
		<path class="st1" d="M565.8,542.4c-4,0-7.7-0.8-11-2.5c-3.3-1.6-6.2-3.8-8.6-6.5c-2.4-2.7-4.2-5.8-5.5-9.3
			c-1.3-3.5-1.9-7.1-1.9-10.8c0-3.8,0.7-7.5,2.1-11c1.4-3.5,3.3-6.6,5.7-9.3c2.4-2.7,5.3-4.8,8.7-6.4c3.3-1.6,7-2.4,10.9-2.4
			c4,0,7.7,0.8,11,2.5c3.3,1.7,6.2,3.9,8.5,6.7c2.4,2.7,4.2,5.9,5.5,9.3c1.3,3.5,1.9,7,1.9,10.6c0,3.8-0.7,7.5-2.1,11
			c-1.4,3.5-3.3,6.6-5.7,9.3c-2.4,2.7-5.3,4.8-8.6,6.4C573.3,541.6,569.7,542.4,565.8,542.4z M547.9,513.3c0,2.7,0.4,5.3,1.3,7.8
			c0.8,2.5,2,4.8,3.6,6.7c1.6,1.9,3.4,3.5,5.7,4.6c2.2,1.2,4.7,1.7,7.4,1.7c2.8,0,5.3-0.6,7.6-1.8c2.2-1.2,4.1-2.8,5.7-4.8
			c1.5-2,2.7-4.2,3.5-6.7c0.8-2.5,1.2-5,1.2-7.6c0-2.7-0.4-5.4-1.3-7.9c-0.9-2.5-2.1-4.7-3.6-6.6c-1.6-1.9-3.4-3.4-5.7-4.6
			c-2.2-1.2-4.7-1.7-7.4-1.7c-2.8,0-5.3,0.6-7.6,1.8c-2.2,1.2-4.1,2.8-5.7,4.7c-1.5,1.9-2.7,4.2-3.5,6.7
			C548.3,508.2,547.9,510.7,547.9,513.3z"/>
	</g>
	<g>
		<path class="st1" d="M611.5,501.6V542h-9.1v-57.4h7.1l32.8,41.4v-41.3h9.1V542H644L611.5,501.6z"/>
	</g>
	<g>
		<path class="st1" d="M661.2,543.4c0.4,0,0.9-0.1,1.5-0.4c0.6-0.3,0.9-0.9,0.9-1.9v-9.5h7.4v11.1c0,1.3-0.3,2.5-0.9,3.4
			c-0.6,0.9-1.4,1.6-2.3,2.2c-0.9,0.5-2,0.9-3.1,1.2c-1.1,0.2-2.2,0.4-3.3,0.4V543.4z"/>
	</g>
	<g>
		<path class="st1" d="M694.1,542l23.1-57.4h7.4l23,57.4H738l-6.1-15.6h-22.2l-6,15.6H694.1z M720.9,494.7l-9.5,25h18.8L720.9,494.7
			z"/>
	</g>
	<g>
		<path class="st1" d="M751.1,512.9c0-3.4,0.6-6.9,1.9-10.3c1.2-3.4,3-6.5,5.4-9.2c2.3-2.7,5.2-4.9,8.6-6.6
			c3.4-1.7,7.2-2.5,11.6-2.5c5.1,0,9.5,1.2,13.2,3.5c3.7,2.3,6.5,5.3,8.3,9.1l-7.1,4.8c-0.8-1.7-1.7-3.2-2.8-4.4
			c-1.1-1.2-2.4-2.1-3.7-2.8c-1.3-0.7-2.7-1.2-4.1-1.5c-1.4-0.3-2.8-0.4-4.1-0.4c-2.9,0-5.5,0.6-7.7,1.8c-2.2,1.2-4.1,2.8-5.6,4.8
			c-1.5,2-2.6,4.2-3.4,6.7c-0.8,2.5-1.1,5-1.1,7.4c0,2.8,0.4,5.5,1.3,8c0.9,2.5,2.1,4.8,3.8,6.7c1.6,1.9,3.5,3.5,5.7,4.6
			c2.2,1.2,4.6,1.7,7.3,1.7c1.3,0,2.8-0.2,4.2-0.5c1.5-0.3,2.9-0.9,4.2-1.7c1.3-0.8,2.5-1.8,3.7-3c1.1-1.2,2.1-2.6,2.8-4.3l7.5,4.3
			c-0.9,2.2-2.2,4.1-3.8,5.7c-1.6,1.6-3.5,3-5.5,4.2c-2,1.1-4.2,2-6.5,2.6c-2.3,0.6-4.6,0.9-6.9,0.9c-4,0-7.6-0.9-10.9-2.6
			c-3.3-1.7-6.1-4-8.5-6.8c-2.4-2.8-4.3-5.9-5.6-9.5C751.7,520.2,751.1,516.6,751.1,512.9z"/>
	</g>
	<g>
		<path class="st1" d="M851.1,492.6H832V542h-9.1v-49.4h-19.2v-8h47.3V492.6z"/>
	</g>
	<g>
		<path class="st1" d="M858.9,542v-57.3h9.1V542H858.9z"/>
	</g>
	<g>
		<path class="st1" d="M904.5,542.4c-4,0-7.7-0.8-11-2.5c-3.3-1.6-6.2-3.8-8.6-6.5c-2.4-2.7-4.2-5.8-5.5-9.3
			c-1.3-3.5-1.9-7.1-1.9-10.8c0-3.8,0.7-7.5,2.1-11c1.4-3.5,3.3-6.6,5.7-9.3c2.4-2.7,5.3-4.8,8.7-6.4c3.3-1.6,7-2.4,10.9-2.4
			c4,0,7.7,0.8,11,2.5c3.3,1.7,6.2,3.9,8.5,6.7c2.4,2.7,4.2,5.9,5.5,9.3c1.3,3.5,1.9,7,1.9,10.6c0,3.8-0.7,7.5-2.1,11
			s-3.3,6.6-5.7,9.3c-2.4,2.7-5.3,4.8-8.6,6.4C912.1,541.6,908.4,542.4,904.5,542.4z M886.6,513.3c0,2.7,0.4,5.3,1.3,7.8
			c0.8,2.5,2,4.8,3.6,6.7c1.6,1.9,3.4,3.5,5.7,4.6c2.2,1.2,4.7,1.7,7.4,1.7c2.8,0,5.3-0.6,7.6-1.8c2.2-1.2,4.1-2.8,5.7-4.8
			c1.5-2,2.7-4.2,3.5-6.7c0.8-2.5,1.2-5,1.2-7.6c0-2.7-0.4-5.4-1.3-7.9c-0.9-2.5-2.1-4.7-3.6-6.6c-1.6-1.9-3.4-3.4-5.7-4.6
			c-2.2-1.2-4.7-1.7-7.4-1.7c-2.8,0-5.3,0.6-7.6,1.8c-2.2,1.2-4.1,2.8-5.7,4.7c-1.5,1.9-2.7,4.2-3.5,6.7
			C887,508.2,886.6,510.7,886.6,513.3z"/>
	</g>
	<g>
		<path class="st1" d="M950.3,501.6V542h-9.1v-57.4h7.1l32.8,41.4v-41.3h9.1V542h-7.5L950.3,501.6z"/>
	</g>
	<g>
		<path class="st1" d="M1000,543.4c0.4,0,0.9-0.1,1.5-0.4c0.6-0.3,0.9-0.9,0.9-1.9v-9.5h7.4v11.1c0,1.3-0.3,2.5-0.9,3.4
			c-0.6,0.9-1.4,1.6-2.3,2.2c-0.9,0.5-2,0.9-3.1,1.2c-1.1,0.2-2.2,0.4-3.3,0.4V543.4z"/>
	</g>
	<g>
		<path class="st1" d="M1032.8,542l23.1-57.4h7.4l23,57.4h-9.6l-6.1-15.6h-22.2l-6,15.6H1032.8z M1059.7,494.7l-9.5,25h18.8
			L1059.7,494.7z"/>
	</g>
	<g>
		<path class="st1" d="M1102.4,501.6V542h-9.1v-57.4h7.1l32.8,41.4v-41.3h9.1V542h-7.5L1102.4,501.6z"/>
	</g>
	<g>
		<path class="st1" d="M1155.4,542v-57.4h20.4c4.6,0,8.7,0.8,12.2,2.3c3.5,1.5,6.4,3.6,8.7,6.1c2.3,2.6,4.1,5.6,5.3,9.1
			c1.2,3.5,1.8,7.2,1.8,11.1c0,4.4-0.7,8.3-2,11.8c-1.3,3.5-3.2,6.5-5.6,9.1c-2.4,2.5-5.4,4.4-8.8,5.8c-3.5,1.4-7.3,2.1-11.6,2.1
			H1155.4z M1194.5,513.2c0-3-0.4-5.8-1.3-8.3c-0.8-2.5-2.1-4.7-3.7-6.5c-1.6-1.8-3.6-3.2-5.9-4.2c-2.3-1-5-1.5-7.9-1.5h-11.3V534
			h11.3c3,0,5.7-0.5,8-1.6c2.3-1.1,4.3-2.5,5.9-4.4c1.6-1.9,2.8-4.1,3.6-6.6C1194.1,518.9,1194.5,516.2,1194.5,513.2z"/>
	</g>
	<g>
		<path class="st1" d="M302.1,639v-57.4h20.4c4.6,0,8.7,0.8,12.2,2.3c3.5,1.5,6.4,3.6,8.7,6.1c2.3,2.6,4.1,5.6,5.3,9.1
			c1.2,3.5,1.8,7.2,1.8,11.1c0,4.4-0.7,8.3-2,11.8c-1.3,3.5-3.2,6.5-5.6,9.1c-2.4,2.5-5.4,4.4-8.8,5.8c-3.5,1.4-7.3,2.1-11.6,2.1
			H302.1z M341.2,610.2c0-3-0.4-5.8-1.3-8.3c-0.8-2.5-2.1-4.7-3.7-6.5c-1.6-1.8-3.6-3.2-5.9-4.2c-2.3-1-5-1.5-7.9-1.5h-11.3V631
			h11.3c3,0,5.7-0.5,8-1.6c2.3-1.1,4.3-2.5,5.9-4.4s2.8-4.1,3.6-6.6C340.8,616,341.2,613.2,341.2,610.2z"/>
	</g>
	<g>
		<path class="st1" d="M399.5,631v8h-39.4v-57.4h38.6v8h-29.6V606h25.6v7.5h-25.6V631H399.5z"/>
	</g>
	<g>
		<path class="st1" d="M412.7,581.6l17.4,46l17.2-46h9.5L433.9,639h-7.8L403,581.6H412.7z"/>
	</g>
	<g>
		<path class="st1" d="M503.1,631v8h-39.4v-57.4h38.6v8h-29.6V606h25.6v7.5h-25.6V631H503.1z"/>
	</g>
	<g>
		<path class="st1" d="M512.8,639v-57.4h9.1V631h30.8v8H512.8z"/>
	</g>
	<g>
		<path class="st1" d="M581.4,639.4c-4,0-7.7-0.8-11-2.5c-3.3-1.6-6.2-3.8-8.6-6.5c-2.4-2.7-4.2-5.8-5.5-9.3
			c-1.3-3.5-1.9-7.1-1.9-10.8c0-3.8,0.7-7.5,2.1-11s3.3-6.6,5.7-9.3c2.4-2.7,5.3-4.8,8.7-6.4c3.3-1.6,7-2.4,10.9-2.4
			c4,0,7.7,0.8,11,2.5c3.3,1.7,6.2,3.9,8.5,6.7c2.4,2.7,4.2,5.9,5.5,9.3c1.3,3.5,1.9,7,1.9,10.6c0,3.8-0.7,7.5-2.1,11
			c-1.4,3.5-3.3,6.6-5.7,9.3c-2.4,2.7-5.3,4.8-8.6,6.4C589,638.6,585.3,639.4,581.4,639.4z M563.5,610.3c0,2.7,0.4,5.3,1.3,7.8
			c0.8,2.5,2,4.8,3.6,6.7c1.6,1.9,3.4,3.5,5.7,4.6c2.2,1.2,4.7,1.7,7.4,1.7c2.8,0,5.3-0.6,7.6-1.8c2.2-1.2,4.1-2.8,5.7-4.8
			c1.5-2,2.7-4.2,3.5-6.7c0.8-2.5,1.2-5,1.2-7.6c0-2.7-0.4-5.4-1.3-7.9c-0.9-2.5-2.1-4.7-3.6-6.6c-1.6-1.9-3.4-3.4-5.7-4.6
			c-2.2-1.2-4.7-1.7-7.4-1.7c-2.8,0-5.3,0.6-7.6,1.8c-2.2,1.2-4.1,2.8-5.7,4.7c-1.5,1.9-2.7,4.2-3.5,6.7
			C563.9,605.2,563.5,607.7,563.5,610.3z"/>
	</g>
	<g>
		<path class="st1" d="M618.1,639v-57.4h24.1c2.6,0,5,0.5,7.2,1.6c2.2,1.1,4.1,2.5,5.6,4.2c1.6,1.8,2.8,3.7,3.7,6
			c0.9,2.2,1.3,4.5,1.3,6.8c0,2.4-0.4,4.8-1.3,7c-0.8,2.2-2,4.2-3.5,6c-1.5,1.8-3.3,3.2-5.5,4.2c-2.1,1-4.5,1.6-7.1,1.6h-15.5v20
			H618.1z M627.2,611.1h15c1.3,0,2.5-0.3,3.5-0.8c1.1-0.5,2-1.3,2.7-2.3c0.8-1,1.3-2.1,1.8-3.4c0.4-1.3,0.6-2.7,0.6-4.3
			c0-1.6-0.2-3.1-0.7-4.4c-0.5-1.3-1.2-2.4-2-3.4c-0.9-0.9-1.8-1.7-3-2.2c-1.1-0.5-2.3-0.8-3.4-0.8h-14.5V611.1z"/>
	</g>
	<g>
		<path class="st1" d="M716.6,639v-41.3L699.5,629h-5l-17.1-31.3V639h-9.1v-57.4h9.7l19,35.1l19-35.1h9.7V639H716.6z"/>
	</g>
	<g>
		<path class="st1" d="M778,631v8h-39.4v-57.4h38.6v8h-29.6V606h25.6v7.5h-25.6V631H778z"/>
	</g>
	<g>
		<path class="st1" d="M796.8,598.6V639h-9.1v-57.4h7.1l32.8,41.4v-41.3h9.1V639h-7.5L796.8,598.6z"/>
	</g>
	<g>
		<path class="st1" d="M891.9,589.6h-19.1V639h-9.1v-49.4h-19.2v-8h47.3V589.6z"/>
	</g>
	<g>
		<path class="st1" d="M917.3,639v-57.4h9.1V631h30.8v8H917.3z"/>
	</g>
	<g>
		<path class="st1" d="M959.1,639l23.1-57.4h7.4l23,57.4h-9.6l-6.1-15.6h-22.2l-6,15.6H959.1z M986,591.7l-9.5,25h18.8L986,591.7z"
			/>
	</g>
	<g>
		<path class="st1" d="M1064.8,624.2c0,2.3-0.5,4.4-1.4,6.2c-0.9,1.8-2.2,3.4-3.8,4.6c-1.6,1.3-3.5,2.2-5.6,2.9
			c-2.2,0.7-4.4,1-6.9,1h-27.4v-57.4h29.6c2,0,3.8,0.4,5.4,1.3c1.6,0.9,3,2,4.1,3.4c1.1,1.4,2,2.9,2.6,4.7c0.6,1.8,0.9,3.5,0.9,5.3
			c0,2.8-0.7,5.4-2.1,7.9c-1.4,2.5-3.5,4.3-6.1,5.5c3.3,1,5.9,2.7,7.8,5.3C1063.8,617.5,1064.8,620.6,1064.8,624.2z M1028.7,589.5
			v16.9h16.7c1.1,0,2.2-0.2,3.1-0.6c0.9-0.4,1.8-1,2.5-1.7c0.7-0.7,1.3-1.6,1.7-2.6c0.4-1,0.6-2.2,0.6-3.4c0-2.5-0.7-4.5-2.1-6.1
			c-1.4-1.6-3.2-2.4-5.3-2.4H1028.7z M1055.5,622.5c0-1.2-0.2-2.3-0.6-3.4c-0.4-1.1-0.9-2-1.6-2.8c-0.7-0.8-1.5-1.5-2.5-1.9
			c-1-0.5-2-0.7-3.2-0.7h-18.9v17.5h18.4c1.2,0,2.3-0.2,3.3-0.7c1-0.5,1.9-1.1,2.7-1.9s1.3-1.7,1.8-2.7
			C1055.3,624.8,1055.5,623.7,1055.5,622.5z"/>
	</g>
</g>
<g>
	<g>
		<g>
			<path class="st1" d="M648.1,430.6c-15.9,0-34.1-0.4-43.8-3c-23.8-6.5-40.6-28.4-40.9-53.1l0-1c0-4.4,3.6-8,8-8c4.4,0,8,3.6,8,8
				v0.9c0.2,17.5,12.2,33.1,29.2,37.8c9.4,2.6,33,2.5,48.6,2.4c2.5,0,4.8,0,6.9,0c31.9,0,45-10.1,45-35c0-14.5,7.6-24.9,13.1-30.6
				c-2.8-5.5-5.9-12.8-5.9-18c0-10.5,9.6-16.1,16.7-20.2c2-1.2,5.1-3,6.5-4.2c-1-2.9-4.5-9.1-7.3-14.2c-8.5-15.2-20-36.1-20-54.3
				c0-4.4,0.4-11.3,1.1-20.5c3.7-47-16-91.8-52.7-119.9c-24.3-18.6-53.8-28.1-87.5-28.1c-51.1,0-90.7,21.1-117.7,62.8
				c-22.7,35-30.7,76.9-30.7,102.2c0,50.3,34.6,96.1,35,96.6l1.6,2.1v85.1c0,4.4-3.6,8-8,8c-4.4,0-8-3.6-8-8v-79.8
				c-7.4-10.4-36.6-54.4-36.6-104c0-28.8,8.7-73.1,33.3-110.9c20.7-31.9,60.3-70,131-70c37.3,0,70,10.5,97.2,31.3
				c41,31.3,63,81.4,58.9,133.8c-0.7,8.8-1,15.2-1,19.2c0,14.1,10.4,32.9,18,46.6c6.5,11.6,9.6,17.4,9.6,22.6
				c0,8.8-8.1,13.5-14.7,17.3c-2.7,1.6-8.3,4.8-8.7,6.5c0.1,2.1,3.4,9.6,6.9,15.6l3.8,6.4l-6.1,4.2c-0.4,0.3-11.8,8.5-11.8,22.3
				c0,33.8-20.5,50.9-60.9,50.9c-2.1,0-4.4,0-6.8,0C654.3,430.6,651.3,430.6,648.1,430.6z"/>
		</g>
		<g>
			<g>
				<g>
					<g>
						<path class="st2" d="M762.3,210.8c-3.3,0-6.4-2.1-7.5-5.4c-1.4-4.2,0.8-8.7,5-10.1l187.9-63.6c4.2-1.4,8.7,0.8,10.1,5
							c1.4,4.2-0.8,8.7-5,10.1l-187.9,63.6C764,210.6,763.1,210.8,762.3,210.8z"/>
					</g>
					<g>
						<path class="st2" d="M950.2,310.1c-0.8,0-1.7-0.1-2.6-0.4L759.7,246c-4.2-1.4-6.4-5.9-5-10.1c1.4-4.2,5.9-6.4,10.1-5
							l187.9,63.6c4.2,1.4,6.4,5.9,5,10.1C956.6,308,953.5,310.1,950.2,310.1z"/>
					</g>
				</g>
			</g>
		</g>
	</g>
</g>
</svg>
